<svg width="24" height="24" viewBox="0 0 24 24">
<path d="M5.85616 10.9326V13.0666L7.45002 11.9992L5.85616 10.9326ZM11.3621 9.38364V6.40988L6.36581 9.74023L8.59753 11.2331L11.3621 9.38364ZM17.6342 9.74023L12.6379 6.40988V9.38364L15.4017 11.2339L17.6342 9.74023ZM6.36581 14.2598L11.3621 17.5901V14.6164L8.59833 12.7677L6.36581 14.2598ZM12.6379 14.6164V17.5917L17.6342 14.2614L15.4025 12.7685L12.6379 14.6164ZM12 10.4919L9.74504 12L12 13.5097L14.255 12L12 10.4919ZM12 0C5.37215 0 0 5.37295 0 12C0 18.627 5.37295 24 12 24C18.6278 24 24 18.627 24 12C24 5.37215 18.627 0 12 0ZM19.4204 14.2614C19.4204 14.291 19.418 14.3199 19.414 14.3479V14.3447L19.4091 14.3728L19.3979 14.4256L19.3883 14.4569C19.3827 14.4761 19.3771 14.4914 19.3699 14.5066L19.3707 14.5034L19.3571 14.533L19.3362 14.5763L19.317 14.6059C19.293 14.6436 19.2665 14.6765 19.2369 14.7061L19.2112 14.731L19.1752 14.7606L19.1463 14.7822L19.1367 14.7902L12.3542 19.3122C12.2548 19.3795 12.1322 19.4196 12 19.4196C11.8678 19.4196 11.7452 19.3795 11.6434 19.3106L11.6458 19.3122L4.85369 14.7814C4.82965 14.7646 4.80801 14.7478 4.78798 14.7293L4.76234 14.7045L4.73028 14.6709L4.70945 14.6428C4.68461 14.6108 4.66217 14.5747 4.64374 14.5362L4.64214 14.533L4.62851 14.5018L4.61169 14.4545L4.60207 14.4248C4.59806 14.4104 4.59486 14.392 4.59245 14.3736V14.3712L4.58684 14.3431C4.58284 14.3183 4.58124 14.2894 4.58043 14.2606V9.73943C4.58043 9.70978 4.58284 9.68174 4.58684 9.65289V9.65609L4.59165 9.62885L4.60287 9.57516L4.61249 9.54551C4.63813 9.46137 4.679 9.38925 4.73269 9.32755L4.73189 9.32835L4.76314 9.29469L4.78878 9.26985C4.80801 9.25222 4.82965 9.23459 4.85209 9.21937L4.85369 9.21776L4.86331 9.20975L11.645 4.68861C11.7444 4.6213 11.867 4.58123 11.9992 4.58123C12.1314 4.58123 12.254 4.6213 12.3558 4.69022L12.3534 4.68861L19.2104 9.26985L19.2361 9.29469C19.2657 9.32434 19.2922 9.3572 19.3146 9.39245L19.3162 9.39486L19.3354 9.42451L19.3563 9.46778L19.3699 9.49743C19.3771 9.51346 19.3819 9.52948 19.3867 9.54471L19.3963 9.57596C19.4003 9.59038 19.4035 9.60881 19.4059 9.62724V9.62965L19.4116 9.65689C19.4156 9.68174 19.4172 9.71058 19.4172 9.73943L19.4204 14.2614ZM18.1438 13.0674V10.9334L16.55 12.0008L18.1438 13.0674Z" />
</svg>
