<svg width="24" height="24" viewBox="0 0 24 24">
<path d="M22.0795 0.00215252H2.05495C1.79685 -0.0099372 1.53889 0.0289873 1.29585 0.11672C1.05281 0.204453 0.829466 0.339255 0.638581 0.513401C0.44771 0.687562 0.293049 0.897662 0.183476 1.13166C0.0739036 1.36567 0.0115497 1.61898 0 1.87711V21.9467C0.0151197 22.4868 0.236484 23.0009 0.618631 23.3829C1.00078 23.7651 1.51473 23.9865 2.05495 24.0016H22.0795C22.6046 23.9782 23.0998 23.75 23.4587 23.3658C23.8177 22.9817 24.0117 22.4723 23.9994 21.9467V1.87711C24.0038 1.62587 23.9567 1.37641 23.8612 1.144C23.7656 0.911612 23.6236 0.701181 23.4437 0.52561C23.264 0.350054 23.0503 0.213078 22.8157 0.123065C22.5811 0.0330522 22.3306 -0.00809225 22.0795 0.00215252ZM7.49983 20.0117H4.00491V9.31698H7.49983V20.0117ZM5.83487 7.69698C5.59099 7.70548 5.34798 7.66345 5.12112 7.57354C4.89425 7.48364 4.68843 7.34778 4.51659 7.17452C4.34474 7.00126 4.21057 6.79434 4.12252 6.56675C4.03446 6.33916 3.99442 6.09582 4.00491 5.85202C3.99412 5.60557 4.03497 5.35961 4.12483 5.12989C4.21469 4.90016 4.35158 4.69175 4.5267 4.51804C4.70184 4.34431 4.91134 4.20912 5.14178 4.12113C5.37223 4.03313 5.61853 3.99428 5.86487 4.00706C6.10874 3.99857 6.35175 4.04059 6.57861 4.13049C6.80548 4.2204 7.0113 4.35625 7.18314 4.52951C7.35499 4.70277 7.48916 4.90969 7.57721 5.13728C7.66527 5.36487 7.70531 5.60821 7.69482 5.85202C7.70561 6.09846 7.66476 6.34443 7.5749 6.57415C7.48504 6.80388 7.34815 7.01229 7.17303 7.186C6.99789 7.35972 6.78839 7.49492 6.55795 7.5829C6.3275 7.67091 6.08121 7.70976 5.83487 7.69698ZM20.0095 20.0117H16.4996V14.1619C16.4996 12.7669 16.0046 11.8069 14.7597 11.8069C14.373 11.8102 13.9966 11.9331 13.6825 12.1587C13.3683 12.3843 13.1316 12.7015 13.0047 13.0669C12.9072 13.3408 12.8664 13.6316 12.8847 13.9219V20.0117H9.43478V9.31698H12.8847V10.8169C13.1914 10.2534 13.6479 9.78572 14.2038 9.46533C14.7597 9.14509 15.3932 8.98471 16.0346 9.00195C18.2996 9.00195 20.0095 10.502 20.0095 13.6969V20.0117Z" />
</svg>
