<svg width="24" height="24" viewBox="0 0 24 24">
<path d="M10.505 24q-1.943 0-3.422-.683t-2.281-1.894Q4 20.181 4 18.567q0-1.367.555-2.484.585-1.117 1.541-1.77a3.83 3.83 0 0 1 2.158-.652q1.08 0 1.82.559.738.528.924 1.49-1.604 0-2.559.87-.955.837-.955 2.297 0 1.335.801 2.142.803.808 2.127.808 1.635 0 2.682-1.087 1.08-1.118 1.08-2.794 0-1.46-.802-2.764-.801-1.304-2.405-3.167-1.664-1.925-2.528-3.29a5.84 5.84 0 0 1-.832-3.043q0-1.616.894-2.888.894-1.303 2.466-2.049Q12.54 0 14.512 0q2.497 0 3.977 1.18Q20 2.36 20 4.347q0 1.304-.647 2.111-.648.807-1.696.807-1.172 0-1.88-.962.585-.435.924-1.149t.34-1.49q0-.994-.586-1.584t-1.603-.59q-1.233 0-2.035.9-.77.87-.77 2.236 0 1.242.708 2.329.71 1.055 2.22 2.732 1.233 1.335 1.973 2.298a9 9 0 0 1 1.295 2.235q.555 1.242.555 2.701 0 1.987-1.11 3.602-1.08 1.614-2.99 2.546-1.881.93-4.193.931"/>
</svg>